<svg width="108" height="32" viewBox="0 0 108 32" fill="none" xmlns="http://www.w3.org/2000/svg">
<path d="M0 0H4.2649V20H0V0Z" fill="black"/>
<path d="M9.95144 20V0L25.234 11.9355V0H29.4989V20L14.2163 8.3871V20H9.95144Z" fill="black"/>
<path d="M33.7638 3.87097V0H48.691V3.87097H43.3598V20H39.0949V3.87097H33.7638Z" fill="black"/>
<path d="M58.6424 0L49.0464 20H53.3113L58.6424 8.06452L63.9735 20H68.9492L58.6424 0Z" fill="black"/>
<path d="M72.1479 20V0H76.4128V8.06452L84.5872 0H89.9183L80.6777 9.35484L89.5629 20H84.2318L77.479 11.9355L76.4128 12.9032V20H72.1479Z" fill="black"/>
<path d="M93.117 20V0H107.333L105.556 3.87097H97.3819V8.3871H102.713V11.9355H97.3819V16.4516H107.333V20H93.117Z" fill="black"/>
<path d="M57.1927 25.3125L58.6536 29.4375L60.1068 25.3125H61.6458V31H60.4701V29.4453L60.5872 26.7617L59.0521 31H58.2474L56.7161 26.7656L56.8333 29.4453V31H55.6615V25.3125H57.1927ZM69.9505 29.8281H67.8958L67.5052 31H66.2591L68.3763 25.3125H69.4622L71.5911 31H70.3451L69.9505 29.8281ZM68.2122 28.8789H69.6341L68.9193 26.75L68.2122 28.8789ZM78.2279 28.918H77.2943V31H76.1224V25.3125H78.2357C78.9076 25.3125 79.4258 25.4622 79.7904 25.7617C80.1549 26.0612 80.3372 26.4844 80.3372 27.0312C80.3372 27.4193 80.2526 27.7435 80.0833 28.0039C79.9167 28.2617 79.6628 28.4674 79.3216 28.6211L80.5521 30.9453V31H79.2943L78.2279 28.918ZM77.2943 27.9688H78.2396C78.5339 27.9688 78.7617 27.8945 78.9232 27.7461C79.0846 27.5951 79.1654 27.388 79.1654 27.125C79.1654 26.8568 79.0885 26.6458 78.9349 26.4922C78.7839 26.3385 78.5508 26.2617 78.2357 26.2617H77.2943V27.9688ZM87.013 28.7188L86.4036 29.375V31H85.2318V25.3125H86.4036V27.8906L86.9193 27.1836L88.3685 25.3125H89.8099L87.7904 27.8398L89.8685 31H88.474L87.013 28.7188ZM97.7318 28.5352H95.4818V30.0586H98.1224V31H94.3099V25.3125H98.1146V26.2617H95.4818V27.6172H97.7318V28.5352ZM107.169 26.2617H105.427V31H104.255V26.2617H102.536V25.3125H107.169V26.2617Z" fill="#00A5EC"/>
</svg>
