<svg width="20" height="20" viewBox="0 0 20 20" fill="none" xmlns="http://www.w3.org/2000/svg">
<path d="M19.7644 0.119755C19.6911 0.0668541 19.6057 0.030099 19.5146 0.0122813C19.4236 -0.0055364 19.3294 -0.00394819 19.2391 0.0169253L6.17524 3.03579C6.04276 3.0664 5.92515 3.13706 5.8411 3.23654C5.75706 3.33603 5.71139 3.45862 5.71137 3.58485V14.3497C5.10871 13.8772 4.34955 13.6091 3.55958 13.5898C2.7696 13.5705 1.99619 13.8012 1.36741 14.2437C0.738618 14.6861 0.292162 15.3138 0.101957 16.0228C-0.0882488 16.7318 -0.0107958 17.4795 0.321492 18.1423C0.65378 18.805 1.22097 19.343 1.92916 19.6671C2.63735 19.9912 3.44406 20.0821 4.21573 19.9246C4.9874 19.7671 5.67774 19.3708 6.17245 18.8012C6.66717 18.2315 6.93659 17.5228 6.93611 16.7924V8.55513L18.7753 5.81928V11.3308C18.1726 10.8583 17.4134 10.5902 16.6235 10.5709C15.8335 10.5517 15.0601 10.7823 14.4313 11.2248C13.8025 11.6672 13.3561 12.2949 13.1658 13.0039C12.9756 13.7129 13.0531 14.4607 13.3854 15.1234C13.7177 15.7861 14.2849 16.3241 14.9931 16.6483C15.7012 16.9724 16.508 17.0632 17.2796 16.9057C18.0513 16.7483 18.7416 16.3519 19.2363 15.7823C19.7311 15.2127 20.0005 14.504 20 13.7735V0.565982C20 0.479948 19.9788 0.395045 19.938 0.317725C19.8972 0.240405 19.8378 0.172701 19.7644 0.119755ZM3.46602 18.8679C3.02193 18.8679 2.58781 18.7461 2.21856 18.5181C1.84932 18.29 1.56152 17.9659 1.39158 17.5866C1.22163 17.2074 1.17717 16.7901 1.2638 16.3875C1.35044 15.9849 1.56429 15.6151 1.87831 15.3248C2.19233 15.0345 2.59241 14.8369 3.02797 14.7568C3.46352 14.6767 3.91499 14.7178 4.32528 14.8749C4.73556 15.032 5.08624 15.298 5.33296 15.6393C5.57968 15.9806 5.71137 16.3819 5.71137 16.7924C5.7107 17.3426 5.47392 17.8702 5.05298 18.2593C4.63204 18.6484 4.06131 18.8672 3.46602 18.8679ZM6.93611 7.38815V4.02683L18.7753 1.29098V4.6523L6.93611 7.38815ZM16.5299 15.849C16.0858 15.849 15.6517 15.7273 15.2825 15.4992C14.9132 15.2712 14.6254 14.947 14.4555 14.5678C14.2855 14.1885 14.2411 13.7712 14.3277 13.3686C14.4143 12.966 14.6282 12.5962 14.9422 12.3059C15.2562 12.0157 15.6563 11.818 16.0919 11.7379C16.5274 11.6578 16.9789 11.6989 17.3892 11.856C17.7994 12.0131 18.1501 12.2791 18.3969 12.6204C18.6436 12.9618 18.7753 13.363 18.7753 13.7735C18.7746 14.3238 18.5378 14.8513 18.1169 15.2404C17.6959 15.6295 17.1252 15.8484 16.5299 15.849Z" fill="black"/>
</svg>
