<svg width="20" height="22" viewBox="0 0 20 22" fill="none" xmlns="http://www.w3.org/2000/svg">
<path d="M3.09638 3.09247C2.97338 3.09097 2.85392 3.05302 2.75459 2.98387C2.65526 2.91472 2.58099 2.81782 2.54209 2.70661C2.5032 2.5954 2.5016 2.4754 2.53753 2.36329C2.57346 2.25117 2.64513 2.1525 2.74258 2.08098C4.86475 0.650193 7.42045 -0.0784139 10.0185 0.00669191C12.0643 0.00669191 15.0024 0.336525 17.3251 1.92706C17.4521 2.0139 17.538 2.14509 17.5639 2.29201C17.5899 2.43892 17.5538 2.58965 17.4636 2.71133C17.3699 2.83171 17.2303 2.91223 17.075 2.93553C16.9196 2.95884 16.7609 2.92307 16.6329 2.83593C14.6605 1.64135 12.3539 1.0458 10.0185 1.12813C7.68687 1.05264 5.39261 1.70084 3.48094 2.97519C3.3721 3.05776 3.2353 3.09948 3.09638 3.09247Z" fill="black"/>
<path d="M19.4248 8.25986C19.3297 8.25903 19.2362 8.23667 19.1519 8.19461C19.0677 8.15256 18.9951 8.09202 18.9403 8.01798C17.6097 6.22955 15.2331 3.84742 10.0185 3.84742C8.28466 3.80581 6.56596 4.16394 5.00859 4.89135C3.45122 5.61875 2.10127 6.69389 1.07359 8.02531C0.981302 8.14521 0.843093 8.22555 0.688997 8.24888C0.5349 8.27221 0.377368 8.23665 0.250631 8.14991C0.184146 8.10582 0.128003 8.04904 0.0857643 7.98317C0.0435254 7.9173 0.0161128 7.84379 0.00526525 7.76729C-0.00558229 7.69079 0.000372126 7.61298 0.0227508 7.53879C0.0451294 7.4646 0.0834438 7.39566 0.135263 7.33633C1.2746 5.86955 2.76708 4.68513 4.48703 3.88281C6.20697 3.08048 8.10404 2.68374 10.0185 2.72599C14.3332 2.72599 17.5636 4.25055 19.894 7.37297C19.9834 7.49554 20.0183 7.64688 19.9909 7.79387C19.9635 7.94086 19.8761 8.07152 19.7479 8.15724C19.6526 8.22009 19.5406 8.25569 19.4248 8.25986Z" fill="black"/>
<path d="M7.15734 21.9956C7.03802 21.995 6.9216 21.9605 6.82296 21.8965C6.72432 21.8326 6.64793 21.742 6.60357 21.6364C6.57282 21.5674 6.55722 21.4931 6.55773 21.4181C6.55825 21.343 6.57487 21.2689 6.60657 21.2003C6.63827 21.1316 6.68439 21.0699 6.74207 21.0188C6.79975 20.9678 6.86779 20.9285 6.94199 20.9035C10.303 19.6721 12.3258 17.1507 12.3258 14.1529C12.3488 13.8585 12.3049 13.5629 12.1971 13.2862C12.0892 13.0095 11.92 12.7582 11.701 12.5494C11.482 12.3407 11.2183 12.1795 10.9279 12.0767C10.6376 11.974 10.3274 11.9321 10.0185 11.954C8.58791 11.954 7.8957 12.687 7.71111 14.4094C7.62527 15.215 7.21514 15.9576 6.56687 16.4811C5.9186 17.0046 5.08266 17.2682 4.23468 17.2167C3.77866 17.223 3.32626 17.1387 2.9063 16.9692C2.48634 16.7998 2.10802 16.5488 1.79545 16.2323C1.48287 15.9158 1.2429 15.5407 1.09081 15.131C0.93872 14.7212 0.877849 14.2858 0.912076 13.8524C0.954576 11.5862 1.93594 9.42806 3.64199 7.84889C5.34805 6.26973 7.64029 5.39777 10.0185 5.42329C12.457 5.42325 14.7964 6.34288 16.5257 7.98129C18.255 9.61969 19.2337 11.8437 19.2479 14.1675C19.1936 15.8038 18.8315 17.4175 18.1788 18.9318C18.1162 19.0669 18.0011 19.1736 17.8578 19.2296C17.7144 19.2856 17.5538 19.2866 17.4097 19.2323C17.3382 19.2043 17.2733 19.163 17.2187 19.1108C17.1641 19.0587 17.1208 18.9967 17.0915 18.9286C17.0622 18.8604 17.0473 18.7874 17.0478 18.7137C17.0483 18.64 17.0641 18.5672 17.0944 18.4994C17.685 17.1215 18.0157 15.655 18.0712 14.1675C18.061 12.1399 17.2076 10.1989 15.6981 8.76998C14.1886 7.34105 12.1461 6.54082 10.0185 6.54473C8.98894 6.5253 7.96551 6.69959 7.00676 7.05763C6.04802 7.41567 5.1728 7.95042 4.43122 8.63126C3.68965 9.3121 3.09628 10.1257 2.6851 11.0254C2.27392 11.925 2.053 12.8932 2.03499 13.8744C2.00347 14.1595 2.03568 14.4478 2.12952 14.7203C2.22336 14.9927 2.37669 15.2431 2.57941 15.455C2.78214 15.6669 3.02966 15.8355 3.30569 15.9496C3.58171 16.0638 3.87998 16.1209 4.18084 16.1172C4.45782 16.1435 4.73751 16.1172 5.00376 16.0398C5.27001 15.9625 5.51755 15.8357 5.73208 15.6667C5.94661 15.4977 6.12388 15.2898 6.25366 15.0552C6.38344 14.8205 6.46316 14.5637 6.4882 14.2995C6.76509 12.02 7.94184 10.8619 9.9954 10.8619C10.4608 10.8395 10.9259 10.9108 11.3604 11.0712C11.7949 11.2317 12.189 11.4776 12.517 11.793C12.8451 12.1084 13.0997 12.4861 13.2642 12.9016C13.4287 13.3171 13.4994 13.7609 13.4718 14.2042C13.4718 17.6784 11.1645 20.5956 7.31886 21.9956C7.26519 22.0015 7.211 22.0015 7.15734 21.9956Z" fill="black"/>
<path d="M12.9181 21.4679C12.7707 21.4656 12.629 21.4137 12.5181 21.3213C12.4632 21.2695 12.4197 21.2078 12.3899 21.1399C12.3602 21.072 12.3449 20.9991 12.3449 20.9255C12.3449 20.8519 12.3602 20.779 12.3899 20.711C12.4197 20.6431 12.4632 20.5815 12.5181 20.5297C14.2485 18.8203 15.2233 16.5426 15.2408 14.1675C15.2408 13.0241 14.8716 9.29334 10.0877 9.29334C9.39061 9.26997 8.69563 9.37914 8.0433 9.61446C7.39096 9.84979 6.79434 10.2066 6.28823 10.664C5.8354 11.091 5.47741 11.6004 5.2356 12.1621C4.99379 12.7237 4.8731 13.326 4.88074 13.933C4.87872 14.0814 4.81543 14.2231 4.70459 14.3273C4.59374 14.4316 4.44426 14.4901 4.28852 14.4901C4.21111 14.491 4.13427 14.4773 4.06246 14.4498C3.99066 14.4222 3.92531 14.3813 3.87021 14.3295C3.81511 14.2777 3.77137 14.2159 3.74151 14.1479C3.71166 14.0798 3.69629 14.0068 3.69629 13.933C3.68431 13.1821 3.82909 12.4364 4.12221 11.7393C4.41533 11.0422 4.85095 10.4076 5.40374 9.87238C6.0165 9.3119 6.73996 8.87297 7.53214 8.58106C8.32432 8.28915 9.16944 8.15008 10.0185 8.1719C14.6947 8.1719 16.356 11.3969 16.356 14.1675C16.346 16.8113 15.2724 19.3507 13.3565 21.2626C13.3036 21.3253 13.2369 21.3762 13.1612 21.4116C13.0854 21.4471 13.0024 21.4663 12.9181 21.4679Z" fill="black"/>
<path d="M4.37312 19.6061C3.97221 19.6052 3.57165 19.5832 3.17329 19.5402C3.09502 19.5338 3.01887 19.5125 2.94935 19.4777C2.87983 19.4428 2.81834 19.395 2.76851 19.3371C2.71868 19.2793 2.68151 19.2125 2.65921 19.1407C2.63691 19.0689 2.62992 18.9936 2.63865 18.9192C2.64738 18.8448 2.67166 18.7728 2.71005 18.7075C2.74845 18.6421 2.80018 18.5848 2.8622 18.5388C2.92421 18.4929 2.99526 18.4592 3.07115 18.4399C3.14703 18.4205 3.22622 18.4158 3.30404 18.4261C5.21915 18.6313 6.72663 18.3088 7.79571 17.4585C8.2885 17.0386 8.68701 16.5279 8.96723 15.9573C9.24745 15.3866 9.40359 14.7679 9.42625 14.1382C9.43006 14.064 9.44962 13.9913 9.48375 13.9245C9.51787 13.8577 9.56586 13.7981 9.62481 13.7495C9.68376 13.7009 9.75244 13.6641 9.82672 13.6415C9.90099 13.6188 9.9793 13.6108 10.0569 13.6178C10.212 13.6291 10.3564 13.6973 10.4597 13.8081C10.563 13.9188 10.6171 14.0635 10.6107 14.2115C10.5783 14.9955 10.3788 15.7649 10.0245 16.4731C9.67012 17.1813 9.16826 17.8133 8.54945 18.3308C7.36225 19.2183 5.8805 19.6708 4.37312 19.6061Z" fill="black"/>
</svg>
