<svg width="22" height="22" viewBox="0 0 22 22" fill="none" xmlns="http://www.w3.org/2000/svg">
<path d="M7 1L3 1.006C2.46957 1.006 1.96086 1.21671 1.58579 1.59179C1.21071 1.96686 1 2.47557 1 3.006V7C1.00012 7.49017 1.18025 7.96323 1.50618 8.32935C1.83211 8.69547 2.28114 8.92914 2.768 8.986L3.004 9L7.004 8.994C7.53409 8.99347 8.04228 8.78252 8.41692 8.40751C8.79156 8.03249 9.002 7.52409 9.002 6.994V3.002C9.00237 2.51148 8.82246 2.03793 8.49649 1.6714C8.17051 1.30486 7.72121 1.0709 7.234 1.014L7 1ZM19 1L15 1.006C14.4696 1.006 13.9609 1.21671 13.5858 1.59179C13.2107 1.96686 13 2.47557 13 3.006V7C13.0001 7.49017 13.1802 7.96323 13.5062 8.32935C13.8321 8.69547 14.2811 8.92914 14.768 8.986L15.004 9L19.004 8.994C19.5341 8.99347 20.0423 8.78252 20.4169 8.40751C20.7916 8.03249 21.002 7.52409 21.002 6.994V3.002C21.0024 2.51148 20.8225 2.03793 20.4965 1.6714C20.1705 1.30486 19.7212 1.0709 19.234 1.014L19 1ZM7 13L3 13.006C2.46957 13.006 1.96086 13.2167 1.58579 13.5918C1.21071 13.9669 1 14.4756 1 15.006V19C1.00012 19.4902 1.18025 19.9632 1.50618 20.3293C1.83211 20.6955 2.28114 20.9291 2.768 20.986L3.004 21L7.004 20.994C7.53409 20.9935 8.04228 20.7825 8.41692 20.4075C8.79156 20.0325 9.002 19.5241 9.002 18.994V15.002C9.00237 14.5115 8.82246 14.0379 8.49649 13.6714C8.17051 13.3049 7.72121 13.0709 7.234 13.014L7 13ZM19 13L15 13.006C14.4696 13.006 13.9609 13.2167 13.5858 13.5918C13.2107 13.9669 13 14.4756 13 15.006V19C13.0001 19.4902 13.1802 19.9632 13.5062 20.3293C13.8321 20.6955 14.2811 20.9291 14.768 20.986L15.004 21L19.004 20.994C19.5341 20.9935 20.0423 20.7825 20.4169 20.4075C20.7916 20.0325 21.002 19.5241 21.002 18.994V15.002C21.0024 14.5115 20.8225 14.0379 20.4965 13.6714C20.1705 13.3049 19.7212 13.0709 19.234 13.014L19 13Z" stroke="#00A5EC" stroke-width="1.2" stroke-linecap="round" stroke-linejoin="round"/>
<path d="M7 1L3 1.006C2.46957 1.006 1.96086 1.21671 1.58579 1.59179C1.21071 1.96686 1 2.47557 1 3.006V7C1.00012 7.49017 1.18025 7.96323 1.50618 8.32935C1.83211 8.69547 2.28114 8.92914 2.768 8.986L3.004 9L7.004 8.994C7.53409 8.99347 8.04228 8.78252 8.41692 8.40751C8.79156 8.03249 9.002 7.52409 9.002 6.994V3.002C9.00237 2.51148 8.82246 2.03793 8.49649 1.6714C8.17051 1.30486 7.72121 1.0709 7.234 1.014L7 1ZM19 1L15 1.006C14.4696 1.006 13.9609 1.21671 13.5858 1.59179C13.2107 1.96686 13 2.47557 13 3.006V7C13.0001 7.49017 13.1802 7.96323 13.5062 8.32935C13.8321 8.69547 14.2811 8.92914 14.768 8.986L15.004 9L19.004 8.994C19.5341 8.99347 20.0423 8.78252 20.4169 8.40751C20.7916 8.03249 21.002 7.52409 21.002 6.994V3.002C21.0024 2.51148 20.8225 2.03793 20.4965 1.6714C20.1705 1.30486 19.7212 1.0709 19.234 1.014L19 1ZM7 13L3 13.006C2.46957 13.006 1.96086 13.2167 1.58579 13.5918C1.21071 13.9669 1 14.4756 1 15.006V19C1.00012 19.4902 1.18025 19.9632 1.50618 20.3293C1.83211 20.6955 2.28114 20.9291 2.768 20.986L3.004 21L7.004 20.994C7.53409 20.9935 8.04228 20.7825 8.41692 20.4075C8.79156 20.0325 9.002 19.5241 9.002 18.994V15.002C9.00237 14.5115 8.82246 14.0379 8.49649 13.6714C8.17051 13.3049 7.72121 13.0709 7.234 13.014L7 13ZM19 13L15 13.006C14.4696 13.006 13.9609 13.2167 13.5858 13.5918C13.2107 13.9669 13 14.4756 13 15.006V19C13.0001 19.4902 13.1802 19.9632 13.5062 20.3293C13.8321 20.6955 14.2811 20.9291 14.768 20.986L15.004 21L19.004 20.994C19.5341 20.9935 20.0423 20.7825 20.4169 20.4075C20.7916 20.0325 21.002 19.5241 21.002 18.994V15.002C21.0024 14.5115 20.8225 14.0379 20.4965 13.6714C20.1705 13.3049 19.7212 13.0709 19.234 13.014L19 13Z" stroke="black" stroke-width="1.2" stroke-linecap="round" stroke-linejoin="round"/>
</svg>
