<svg width="20" height="20" viewBox="0 0 20 20" fill="none" xmlns="http://www.w3.org/2000/svg">
<path d="M10 0C4.47768 0 0 4.47768 0 10C0 15.5223 4.47768 20 10 20C15.5223 20 20 15.5223 20 10C20 4.47768 15.5223 0 10 0ZM10 18.3036C5.41518 18.3036 1.69643 14.5848 1.69643 10C1.69643 5.41518 5.41518 1.69643 10 1.69643C14.5848 1.69643 18.3036 5.41518 18.3036 10C18.3036 14.5848 14.5848 18.3036 10 18.3036Z" fill="black"/>
<path d="M8.92857 6.07143C8.92857 6.35559 9.04145 6.62811 9.24239 6.82904C9.44332 7.02997 9.71584 7.14286 10 7.14286C10.2842 7.14286 10.5567 7.02997 10.7576 6.82904C10.9585 6.62811 11.0714 6.35559 11.0714 6.07143C11.0714 5.78727 10.9585 5.51475 10.7576 5.31381C10.5567 5.11288 10.2842 5 10 5C9.71584 5 9.44332 5.11288 9.24239 5.31381C9.04145 5.51475 8.92857 5.78727 8.92857 6.07143ZM10.5357 8.57143H9.46429C9.36607 8.57143 9.28571 8.65179 9.28571 8.75V14.8214C9.28571 14.9196 9.36607 15 9.46429 15H10.5357C10.6339 15 10.7143 14.9196 10.7143 14.8214V8.75C10.7143 8.65179 10.6339 8.57143 10.5357 8.57143Z" fill="black"/>
</svg>
