<svg width="20" height="20" viewBox="0 0 20 20" fill="none" xmlns="http://www.w3.org/2000/svg">
<path d="M10 6.25C10.2462 6.25 10.49 6.20151 10.7175 6.10728C10.945 6.01305 11.1517 5.87494 11.3258 5.70083C11.4999 5.52672 11.638 5.32002 11.7323 5.09254C11.8265 4.86505 11.875 4.62123 11.875 4.375C11.875 4.12878 11.8265 3.88496 11.7323 3.65747C11.638 3.42999 11.4999 3.22329 11.3258 3.04918C11.1517 2.87507 10.945 2.73696 10.7175 2.64273C10.49 2.5485 10.2462 2.5 10 2.5C9.50272 2.5 9.02581 2.69755 8.67418 3.04918C8.32255 3.40081 8.125 3.87772 8.125 4.375C8.125 4.87228 8.32255 5.3492 8.67418 5.70083C9.02581 6.05246 9.50272 6.25 10 6.25ZM15 10C15.4973 10 15.9742 9.80246 16.3258 9.45083C16.6775 9.0992 16.875 8.62228 16.875 8.125C16.875 7.62772 16.6775 7.15081 16.3258 6.79918C15.9742 6.44755 15.4973 6.25 15 6.25C14.5027 6.25 14.0258 6.44755 13.6742 6.79918C13.3225 7.15081 13.125 7.62772 13.125 8.125C13.125 8.62228 13.3225 9.0992 13.6742 9.45083C14.0258 9.80246 14.5027 10 15 10ZM6.875 8.75C6.875 9.24728 6.67746 9.7242 6.32583 10.0758C5.9742 10.4275 5.49728 10.625 5 10.625C4.50272 10.625 4.02581 10.4275 3.67418 10.0758C3.32255 9.7242 3.125 9.24728 3.125 8.75C3.125 8.25272 3.32255 7.77581 3.67418 7.42418C4.02581 7.07255 4.50272 6.875 5 6.875C5.49728 6.875 5.9742 7.07255 6.32583 7.42418C6.67746 7.77581 6.875 8.25272 6.875 8.75ZM7.5 16.25C7.99728 16.25 8.4742 16.0525 8.82583 15.7008C9.17746 15.3492 9.375 14.8723 9.375 14.375C9.375 13.8777 9.17746 13.4008 8.82583 13.0492C8.4742 12.6975 7.99728 12.5 7.5 12.5C7.00272 12.5 6.52581 12.6975 6.17418 13.0492C5.82255 13.4008 5.625 13.8777 5.625 14.375C5.625 14.8723 5.82255 15.3492 6.17418 15.7008C6.52581 16.0525 7.00272 16.25 7.5 16.25Z" fill="black"/>
<path d="M20 10C20 13.9375 17.6675 13.2313 15.5413 12.5875C14.275 12.2038 13.0813 11.8413 12.5 12.5C11.7463 13.3538 11.9063 14.7738 12.0613 16.15C12.2825 18.1188 12.495 20 10 20C8.02219 20 6.08879 19.4135 4.4443 18.3147C2.79981 17.2159 1.51809 15.6541 0.761209 13.8268C0.00433281 11.9996 -0.1937 9.98891 0.192152 8.0491C0.578004 6.10929 1.53041 4.32746 2.92894 2.92894C4.32746 1.53041 6.10929 0.578004 8.0491 0.192152C9.98891 -0.1937 11.9996 0.00433281 13.8268 0.761209C15.6541 1.51809 17.2159 2.79981 18.3147 4.4443C19.4135 6.08879 20 8.02219 20 10ZM10 18.75C10.7638 18.75 10.8175 18.5363 10.8188 18.53C10.9163 18.3475 10.9738 17.95 10.9063 17.1313C10.8888 16.9213 10.86 16.6688 10.83 16.3925C10.765 15.8125 10.69 15.1363 10.6825 14.565C10.67 13.6813 10.7863 12.5525 11.5625 11.6725C12.0238 11.1513 12.6188 10.95 13.1525 10.9C13.6575 10.8525 14.1675 10.9325 14.6025 11.03C15.0313 11.1263 15.48 11.2625 15.8838 11.385L15.9188 11.395C16.3513 11.5263 16.7413 11.6438 17.11 11.7275C17.9263 11.9125 18.24 11.8313 18.3488 11.7575C18.3963 11.725 18.75 11.4513 18.75 10C18.75 8.26942 18.2368 6.57769 17.2754 5.13876C16.3139 3.69983 14.9473 2.57832 13.3485 1.91606C11.7496 1.25379 9.9903 1.08051 8.29296 1.41813C6.59563 1.75575 5.03653 2.58911 3.81282 3.81282C2.58911 5.03653 1.75575 6.59563 1.41813 8.29296C1.08051 9.9903 1.25379 11.7496 1.91606 13.3485C2.57832 14.9473 3.69983 16.3139 5.13876 17.2754C6.57769 18.2368 8.26942 18.75 10 18.75Z" fill="black"/>
</svg>
