<svg xmlns="http://www.w3.org/2000/svg" version="1.1" xmlns:xlink="http://www.w3.org/1999/xlink" xmlns:svgjs="http://svgjs.com/svgjs" width="24" height="24" x="0" y="0" viewBox="0 0 327 327" style="enable-background:new 0 0 512 512" xml:space="preserve" class=""><g><path xmlns="http://www.w3.org/2000/svg" d="m158 0h71c4.417969 0 8 3.582031 8 8v311c0 4.417969-3.582031 8-8 8h-71c-4.417969 0-8-3.582031-8-8v-311c0-4.417969 3.582031-8 8-8zm0 0" fill="#ffffff" data-original="#000000" class=""></path><path xmlns="http://www.w3.org/2000/svg" d="m8 0h71c4.417969 0 8 3.582031 8 8v311c0 4.417969-3.582031 8-8 8h-71c-4.417969 0-8-3.582031-8-8v-311c0-4.417969 3.582031-8 8-8zm0 0" fill="#ffffff" data-original="#000000" class=""></path></g></svg>