<svg width="20" height="22" viewBox="0 0 20 22" fill="none" xmlns="http://www.w3.org/2000/svg">
<path d="M9.05804 0.190296C9.5 -0.0598956 10.2188 -0.0638253 10.6629 0.181127L19.1964 4.88062C19.6429 5.12514 20 5.72944 20 6.22808V15.7157C20 16.2152 19.6402 16.82 19.1964 17.0693L10.6612 21.8172C10.2179 22.0644 9.50045 22.0604 9.06071 21.8081L0.797321 17.0745C0.357143 16.8221 0 16.2126 0 15.7157V6.22808C0 5.72857 0.357143 5.12077 0.799554 4.87102L9.05804 0.190296ZM5.60268 8.91556C4.89107 8.91556 4.17902 8.92167 3.46741 8.92167V13.3513H4.32143V12.048H5.60268C7.82188 12.048 7.81518 8.91556 5.60268 8.91556ZM11.8589 13.2946L10.4871 11.7821C12.1388 11.4542 12.0406 8.9339 10.0018 8.92167C9.28348 8.92167 8.56563 8.91556 7.84732 8.91556V13.3513H8.70134V11.8707H9.52322L10.8429 13.3513H11.8589V13.2946ZM10.0022 9.70019C11.0442 9.70019 11.0406 11.1175 10.0022 11.1175H8.70179V9.70019H10.0022ZM5.73616 9.63033C6.6817 9.63033 6.67857 11.3267 5.73616 11.3267H4.29375V9.63077L5.73616 9.63033ZM14.3366 8.83348C11.2804 8.83348 11.167 13.4531 14.3366 13.4531C17.4384 13.4526 17.4353 8.83348 14.3366 8.83348ZM14.3366 9.59278C16.3063 9.59278 16.3366 12.6868 14.3366 12.6868C12.3366 12.6868 12.3531 9.59278 14.3366 9.59278Z" fill="black"/>
</svg>
