<svg width="20" height="20" viewBox="0 0 20 20" fill="none" xmlns="http://www.w3.org/2000/svg">
<path d="M17.891 5.687C18.614 7.00944 18.992 8.49281 18.99 10C18.9904 11.5732 18.5777 13.119 17.7933 14.4827C17.0089 15.8465 15.8801 16.9804 14.52 17.771L17.266 9.832C17.779 8.55 17.95 7.523 17.95 6.613C17.9504 6.30338 17.9307 5.99407 17.891 5.687ZM11.24 5.774C11.583 5.75713 11.9252 5.72778 12.266 5.686C12.751 5.623 12.694 4.911 12.21 4.937C12.21 4.937 10.747 5.049 9.81 5.049C8.923 5.049 7.435 4.924 7.435 4.924C6.948 4.9 6.885 5.637 7.374 5.662C7.374 5.662 7.823 5.714 8.312 5.737L9.711 9.575L7.736 15.474L4.462 5.75C5.003 5.724 5.49 5.667 5.49 5.667C5.977 5.604 5.92 4.892 5.435 4.92C5.435 4.92 3.98 5.035 3.04 5.035C2.873 5.035 2.675 5.028 2.465 5.022C4.093 2.625 6.862 1.012 10 1.012C12.341 1.012 14.471 1.906 16.071 3.372C16.033 3.37 15.995 3.364 15.954 3.364C15.071 3.364 14.444 4.134 14.444 4.96C14.444 5.701 14.871 6.329 15.327 7.068C15.67 7.669 16.069 8.438 16.069 9.549C16.069 10.312 15.774 11.211 15.384 12.448L14.488 15.435L11.238 5.76L11.24 5.774ZM10 18.986C9.14028 18.9868 8.28489 18.8643 7.46 18.622L10.157 10.784L12.92 18.356C12.941 18.4 12.962 18.441 12.985 18.48C12.0258 18.8164 11.0165 18.9882 10 18.988V18.986ZM1.01 10C1.00854 8.73945 1.27368 7.49285 1.788 6.342L6.075 18.091C4.55646 17.3537 3.27611 16.2038 2.38039 14.773C1.48468 13.3421 1.00977 11.6881 1.01 10ZM10 0C4.487 0 0 4.487 0 10C0 15.513 4.487 20 10 20C15.513 20 20 15.513 20 10C20 4.487 15.513 0 10 0Z" fill="black"/>
</svg>
